<svg width="715" height="344" viewBox="0 0 715 344" fill="none" xmlns="http://www.w3.org/2000/svg">
<mask id="path-1-outside-1_3772_881" maskUnits="userSpaceOnUse" x="20" y="-1" width="692" height="346" fill="black">
<rect fill="white" x="20" y="-1" width="692" height="346"/>
<path d="M21.33 119L44.43 3.49999H83.37L66.375 88.805H118.515L112.41 119H21.33ZM173.326 46.4H224.806L219.196 74.45H167.716L173.326 46.4ZM167.221 89.63H225.136L219.196 119H123.166L146.266 3.49999H240.151L234.211 32.87H178.606L167.221 89.63ZM259.266 119L276.261 33.695H242.436L248.541 3.49999H355.131L349.026 33.695H315.201L298.206 119H259.266ZM388.015 121.64C381.195 121.64 374.65 121.145 368.38 120.155C362.11 119.165 356.39 117.79 351.22 116.03C346.16 114.16 341.76 112.125 338.02 109.925L353.035 81.215C357.325 83.635 361.615 85.67 365.905 87.32C370.305 88.86 374.65 90.015 378.94 90.785C383.34 91.555 387.685 91.94 391.975 91.94C395.385 91.94 398.19 91.665 400.39 91.115C402.7 90.565 404.405 89.795 405.505 88.805C406.715 87.705 407.32 86.495 407.32 85.175C407.32 83.415 406.33 81.985 404.35 80.885C402.37 79.785 399.73 78.795 396.43 77.915C393.24 77.035 389.665 76.155 385.705 75.275C381.855 74.285 377.95 73.075 373.99 71.645C370.03 70.105 366.4 68.18 363.1 65.87C359.91 63.56 357.325 60.645 355.345 57.125C353.365 53.605 352.375 49.315 352.375 44.255C352.375 35.455 354.685 27.81 359.305 21.32C364.035 14.83 370.745 9.825 379.435 6.305C388.235 2.675 398.685 0.859997 410.785 0.859997C419.365 0.859997 427.34 1.74 434.71 3.49999C442.19 5.14999 448.625 7.56999 454.015 10.76L439.99 39.14C435.37 36.28 430.31 34.135 424.81 32.705C419.42 31.275 413.92 30.56 408.31 30.56C404.57 30.56 401.435 30.945 398.905 31.715C396.375 32.375 394.45 33.31 393.13 34.52C391.92 35.73 391.315 36.995 391.315 38.315C391.315 40.075 392.305 41.56 394.285 42.77C396.265 43.87 398.905 44.86 402.205 45.74C405.505 46.51 409.08 47.39 412.93 48.38C416.89 49.26 420.795 50.415 424.645 51.845C428.605 53.165 432.235 54.98 435.535 57.29C438.835 59.49 441.475 62.35 443.455 65.87C445.435 69.28 446.425 73.515 446.425 78.575C446.425 87.155 444.06 94.69 439.33 101.18C434.6 107.56 427.835 112.565 419.035 116.195C410.345 119.825 400.005 121.64 388.015 121.64ZM185.936 232.64C174.056 232.64 163.661 230.495 154.751 226.205C145.841 221.805 138.911 215.755 133.961 208.055C129.121 200.245 126.701 191.225 126.701 180.995C126.701 170.875 128.461 161.58 131.981 153.11C135.611 144.64 140.726 137.325 147.326 131.165C153.926 125.005 161.736 120.275 170.756 116.975C179.886 113.565 189.951 111.86 200.951 111.86C213.051 111.86 223.446 113.785 232.136 117.635C240.936 121.375 248.031 126.985 253.421 134.465L225.536 156.08C221.796 151.24 217.836 147.94 213.656 146.18C209.476 144.31 204.636 143.375 199.136 143.375C194.076 143.375 189.511 144.255 185.441 146.015C181.371 147.665 177.851 150.085 174.881 153.275C172.021 156.355 169.821 160.04 168.281 164.33C166.741 168.62 165.971 173.35 165.971 178.52C165.971 183.03 166.961 186.99 168.941 190.4C171.031 193.81 173.946 196.45 177.686 198.32C181.536 200.19 186.101 201.125 191.381 201.125C195.781 201.125 200.181 200.41 204.581 198.98C208.981 197.44 213.491 194.855 218.111 191.225L232.796 218.945C226.746 223.345 219.706 226.755 211.676 229.175C203.646 231.485 195.066 232.64 185.936 232.64ZM200.126 213.005L208.871 169.115H242.696L232.796 218.945L200.126 213.005ZM297.237 157.4H348.717L343.107 185.45H291.627L297.237 157.4ZM291.132 200.63H349.047L343.107 230H247.077L270.177 114.5H364.062L358.122 143.87H302.517L291.132 200.63ZM383.178 230L400.173 144.695H366.348L372.453 114.5H479.043L472.938 144.695H439.113L422.118 230H383.178ZM515.524 230L538.624 114.5H577.564L554.464 230H515.524ZM573.21 230L596.31 114.5H628.32L671.715 184.79H658.185L672.21 114.5H710.16L687.06 230H655.05L611.655 159.71H625.185L611.16 230H573.21ZM46.41 341L63.405 255.695H29.58L35.685 225.5H142.275L136.17 255.695H102.345L85.35 341H46.41ZM192.688 343.64C180.698 343.64 170.303 341.44 161.503 337.04C152.813 332.64 146.048 326.59 141.208 318.89C136.478 311.08 134.113 302.115 134.113 291.995C134.113 281.765 135.873 272.47 139.393 264.11C143.023 255.64 148.083 248.325 154.573 242.165C161.063 236.005 168.763 231.275 177.673 227.975C186.583 224.565 196.318 222.86 206.878 222.86C218.868 222.86 229.208 225.06 237.898 229.46C246.698 233.86 253.463 239.965 258.193 247.775C263.033 255.475 265.453 264.385 265.453 274.505C265.453 284.735 263.638 294.085 260.008 302.555C256.488 310.915 251.483 318.175 244.993 324.335C238.503 330.495 230.803 335.28 221.893 338.69C212.983 341.99 203.248 343.64 192.688 343.64ZM195.988 312.125C200.828 312.125 205.063 311.19 208.693 309.32C212.433 307.45 215.623 304.865 218.263 301.565C220.903 298.265 222.883 294.525 224.203 290.345C225.523 286.055 226.183 281.545 226.183 276.815C226.183 272.305 225.248 268.4 223.378 265.1C221.618 261.69 219.033 259.05 215.623 257.18C212.323 255.31 208.308 254.375 203.578 254.375C198.848 254.375 194.613 255.31 190.873 257.18C187.133 259.05 183.943 261.635 181.303 264.935C178.663 268.235 176.683 272.03 175.363 276.32C174.043 280.5 173.383 284.955 173.383 289.685C173.383 294.085 174.263 297.99 176.023 301.4C177.893 304.81 180.478 307.45 183.778 309.32C187.188 311.19 191.258 312.125 195.988 312.125ZM325.786 343.64C313.796 343.64 303.786 341.385 295.756 336.875C287.726 332.255 282.006 325.875 278.596 317.735C275.296 309.485 274.746 299.915 276.946 289.025L289.651 225.5H328.591L316.051 288.365C315.281 292.435 315.006 295.955 315.226 298.925C315.446 301.895 316.161 304.37 317.371 306.35C318.691 308.33 320.451 309.815 322.651 310.805C324.851 311.685 327.491 312.125 330.571 312.125C334.311 312.125 337.501 311.355 340.141 309.815C342.891 308.275 345.146 305.745 346.906 302.225C348.776 298.705 350.261 294.085 351.361 288.365L363.901 225.5H402.181L389.146 290.675C385.736 307.945 378.751 321.09 368.191 330.11C357.631 339.13 343.496 343.64 325.786 343.64ZM462.601 343.64C450.721 343.64 440.326 341.495 431.416 337.205C422.506 332.805 415.576 326.755 410.626 319.055C405.786 311.245 403.366 302.225 403.366 291.995C403.366 281.875 405.126 272.58 408.646 264.11C412.276 255.64 417.336 248.325 423.826 242.165C430.316 236.005 438.016 231.275 446.926 227.975C455.836 224.565 465.626 222.86 476.296 222.86C487.406 222.86 497.251 224.84 505.831 228.8C514.411 232.76 520.791 238.48 524.971 245.96L496.921 267.905C494.501 263.615 491.366 260.315 487.516 258.005C483.666 255.585 479.101 254.375 473.821 254.375C469.201 254.375 464.966 255.255 461.116 257.015C457.376 258.665 454.131 261.085 451.381 264.275C448.631 267.355 446.486 271.04 444.946 275.33C443.406 279.62 442.636 284.35 442.636 289.52C442.636 294.03 443.626 297.99 445.606 301.4C447.586 304.81 450.336 307.45 453.856 309.32C457.486 311.19 461.666 312.125 466.396 312.125C470.906 312.125 475.306 311.08 479.596 308.99C483.996 306.9 488.176 303.49 492.136 298.76L515.071 320.705C508.031 329.285 500.166 335.28 491.476 338.69C482.896 341.99 473.271 343.64 462.601 343.64ZM617.724 225.5H656.664L633.564 341H594.624L617.724 225.5ZM558.654 341H519.714L542.814 225.5H581.754L558.654 341ZM605.679 298.43H564.594L571.029 266.42H612.114L605.679 298.43Z"/>
</mask>
<path d="M21.33 119L20.3494 118.804L20.1102 120H21.33V119ZM44.43 3.49999V2.49999H43.6102L43.4494 3.30388L44.43 3.49999ZM83.37 3.49999L84.3507 3.69538L84.5889 2.49999H83.37V3.49999ZM66.375 88.805L65.3943 88.6096L65.1561 89.805H66.375V88.805ZM118.515 88.805L119.495 89.0032L119.737 87.805H118.515V88.805ZM112.41 119V120H113.228L113.39 119.198L112.41 119ZM22.3106 119.196L45.4106 3.69611L43.4494 3.30388L20.3494 118.804L22.3106 119.196ZM44.43 4.49999H83.37V2.49999H44.43V4.49999ZM82.3893 3.30461L65.3943 88.6096L67.3557 89.0004L84.3507 3.69538L82.3893 3.30461ZM66.375 89.805H118.515V87.805H66.375V89.805ZM117.535 88.6068L111.43 118.802L113.39 119.198L119.495 89.0032L117.535 88.6068ZM112.41 118H21.33V120H112.41V118ZM173.326 46.4V45.4H172.506L172.345 46.2039L173.326 46.4ZM224.806 46.4L225.787 46.5961L226.026 45.4H224.806V46.4ZM219.196 74.45V75.45H220.016L220.177 74.6461L219.196 74.45ZM167.716 74.45L166.735 74.2539L166.496 75.45H167.716V74.45ZM167.221 89.63L166.24 89.4333L166 90.63H167.221V89.63ZM225.136 89.63L226.116 89.8282L226.358 88.63H225.136V89.63ZM219.196 119V120H220.014L220.176 119.198L219.196 119ZM123.166 119L122.185 118.804L121.946 120H123.166V119ZM146.266 3.49999V2.49999H145.446L145.285 3.30388L146.266 3.49999ZM240.151 3.49999L241.131 3.69823L241.373 2.49999H240.151V3.49999ZM234.211 32.87V33.87H235.029L235.191 33.0682L234.211 32.87ZM178.606 32.87V31.87H177.787L177.625 32.6733L178.606 32.87ZM173.326 47.4H224.806V45.4H173.326V47.4ZM223.825 46.2039L218.215 74.2539L220.177 74.6461L225.787 46.5961L223.825 46.2039ZM219.196 73.45H167.716V75.45H219.196V73.45ZM168.697 74.6461L174.307 46.5961L172.345 46.2039L166.735 74.2539L168.697 74.6461ZM167.221 90.63H225.136V88.63H167.221V90.63ZM224.156 89.4318L218.216 118.802L220.176 119.198L226.116 89.8282L224.156 89.4318ZM219.196 118H123.166V120H219.196V118ZM124.147 119.196L147.247 3.69611L145.285 3.30388L122.185 118.804L124.147 119.196ZM146.266 4.49999H240.151V2.49999H146.266V4.49999ZM239.171 3.30176L233.231 32.6718L235.191 33.0682L241.131 3.69823L239.171 3.30176ZM234.211 31.87H178.606V33.87H234.211V31.87ZM177.625 32.6733L166.24 89.4333L168.201 89.8267L179.586 33.0667L177.625 32.6733ZM259.266 119L258.286 118.805L258.048 120H259.266V119ZM276.261 33.695L277.242 33.8904L277.48 32.695H276.261V33.695ZM242.436 33.695L241.456 33.4968L241.214 34.695H242.436V33.695ZM248.541 3.49999V2.49999H247.723L247.561 3.30182L248.541 3.49999ZM355.131 3.49999L356.112 3.69817L356.354 2.49999H355.131V3.49999ZM349.026 33.695V34.695H349.844L350.007 33.8932L349.026 33.695ZM315.201 33.695V32.695H314.381L314.221 33.4996L315.201 33.695ZM298.206 119V120H299.027L299.187 119.195L298.206 119ZM260.247 119.195L277.242 33.8904L275.281 33.4996L258.286 118.805L260.247 119.195ZM276.261 32.695H242.436V34.695H276.261V32.695ZM243.417 33.8932L249.522 3.69817L247.561 3.30182L241.456 33.4968L243.417 33.8932ZM248.541 4.49999H355.131V2.49999H248.541V4.49999ZM354.151 3.30182L348.046 33.4968L350.007 33.8932L356.112 3.69817L354.151 3.30182ZM349.026 32.695H315.201V34.695H349.026V32.695ZM314.221 33.4996L297.226 118.805L299.187 119.195L316.182 33.8904L314.221 33.4996ZM298.206 118H259.266V120H298.206V118ZM368.38 120.155L368.536 119.167L368.38 120.155ZM351.22 116.03L350.874 116.968L350.886 116.972L350.898 116.977L351.22 116.03ZM338.02 109.925L337.134 109.462L336.693 110.305L337.513 110.787L338.02 109.925ZM353.035 81.215L353.527 80.344L352.628 79.8369L352.149 80.7516L353.035 81.215ZM365.905 87.32L365.546 88.2533L365.561 88.2588L365.575 88.2639L365.905 87.32ZM378.94 90.785L378.764 91.7693L378.768 91.77L378.94 90.785ZM400.39 91.115L400.159 90.1421L400.148 90.1449L400.39 91.115ZM405.505 88.805L406.174 89.5483L406.178 89.5449L405.505 88.805ZM404.35 80.885L403.865 81.7592L404.35 80.885ZM396.43 77.915L396.164 78.879L396.173 78.8812L396.43 77.915ZM385.705 75.275L385.456 76.2435L385.472 76.2476L385.488 76.2512L385.705 75.275ZM373.99 71.645L373.628 72.577L373.639 72.5814L373.651 72.5856L373.99 71.645ZM363.1 65.87L362.514 66.6799L362.52 66.6846L362.527 66.6892L363.1 65.87ZM355.345 57.125L356.217 56.6347L355.345 57.125ZM359.305 21.32L358.497 20.731L358.491 20.7401L359.305 21.32ZM379.435 6.305L379.811 7.23186L379.817 7.22943L379.435 6.305ZM434.71 3.49999L434.478 4.47264L434.487 4.47465L434.495 4.47652L434.71 3.49999ZM454.015 10.76L454.912 11.203L455.323 10.3717L454.525 9.89942L454.015 10.76ZM439.99 39.14L439.464 39.9903L440.4 40.5693L440.887 39.583L439.99 39.14ZM424.81 32.705L424.554 33.6716L424.559 33.6728L424.81 32.705ZM398.905 31.715L399.158 32.6826L399.177 32.6775L399.197 32.6717L398.905 31.715ZM393.13 34.52L392.455 33.7828L392.439 33.7975L392.423 33.8129L393.13 34.52ZM394.285 42.77L393.764 43.6233L393.782 43.6341L393.8 43.6442L394.285 42.77ZM402.205 45.74L401.948 46.7062L401.963 46.7103L401.978 46.7138L402.205 45.74ZM412.93 48.38L412.681 49.3485L412.697 49.3526L412.714 49.3562L412.93 48.38ZM424.645 51.845L424.297 52.7824L424.313 52.7883L424.329 52.7937L424.645 51.845ZM435.535 57.29L434.962 58.1092L434.971 58.1157L434.981 58.122L435.535 57.29ZM443.455 65.87L442.584 66.3603L442.591 66.3721L443.455 65.87ZM439.33 101.18L440.134 101.776L440.139 101.769L439.33 101.18ZM419.035 116.195L418.654 115.271L418.65 115.272L419.035 116.195ZM388.015 120.64C381.244 120.64 374.751 120.149 368.536 119.167L368.224 121.143C374.55 122.141 381.147 122.64 388.015 122.64V120.64ZM368.536 119.167C362.314 118.185 356.651 116.822 351.543 115.083L350.898 116.977C356.13 118.758 361.907 120.145 368.224 121.143L368.536 119.167ZM351.567 115.092C346.55 113.238 342.206 111.227 338.527 109.063L337.513 110.787C341.315 113.023 345.771 115.082 350.874 116.968L351.567 115.092ZM338.907 110.388L353.922 81.6784L352.149 80.7516L337.134 109.462L338.907 110.388ZM352.544 82.086C356.874 84.5283 361.208 86.5846 365.546 88.2533L366.264 86.3867C362.023 84.7554 357.777 82.7417 353.527 80.344L352.544 82.086ZM365.575 88.2639C370.022 89.8202 374.418 90.9893 378.764 91.7693L379.117 89.8007C374.883 89.0407 370.589 87.8998 366.236 86.3761L365.575 88.2639ZM378.768 91.77C383.223 92.5496 387.625 92.94 391.975 92.94V90.94C387.746 90.94 383.458 90.5604 379.113 89.8L378.768 91.77ZM391.975 92.94C395.431 92.94 398.325 92.6622 400.633 92.0851L400.148 90.1449C398.056 90.6678 395.34 90.94 391.975 90.94V92.94ZM400.622 92.0878C403.007 91.5201 404.897 90.6982 406.174 89.5483L404.836 88.0617C403.914 88.8918 402.394 89.6099 400.159 90.1422L400.622 92.0878ZM406.178 89.5449C407.543 88.3041 408.32 86.8418 408.32 85.175H406.32C406.32 86.1482 405.888 87.1059 404.833 88.0651L406.178 89.5449ZM408.32 85.175C408.32 82.9451 407.028 81.2284 404.836 80.0108L403.865 81.7592C405.633 82.7416 406.32 83.8849 406.32 85.175H408.32ZM404.836 80.0108C402.758 78.8562 400.032 77.8404 396.688 76.9488L396.173 78.8812C399.429 79.7496 401.983 80.7138 403.865 81.7592L404.836 80.0108ZM396.696 76.951C393.487 76.0657 389.895 75.1817 385.922 74.2988L385.488 76.2512C389.436 77.1283 392.994 78.0043 396.165 78.879L396.696 76.951ZM385.954 74.3065C382.137 73.3248 378.262 72.1243 374.33 70.7044L373.651 72.5856C377.639 74.0257 381.574 75.2452 385.456 76.2435L385.954 74.3065ZM374.353 70.713C370.463 69.2004 366.905 67.3124 363.674 65.0508L362.527 66.6892C365.896 69.0476 369.597 71.0096 373.628 72.577L374.353 70.713ZM363.687 65.0601C360.617 62.837 358.128 60.0321 356.217 56.6347L354.474 57.6153C356.523 61.2579 359.204 64.283 362.514 66.6799L363.687 65.0601ZM356.217 56.6347C354.34 53.2977 353.375 49.186 353.375 44.255H351.375C351.375 49.444 352.391 53.9123 354.474 57.6153L356.217 56.6347ZM353.375 44.255C353.375 35.6401 355.633 28.2029 360.12 21.8999L358.491 20.7401C353.738 27.4171 351.375 35.2699 351.375 44.255H353.375ZM360.114 21.909C364.716 15.5935 371.264 10.6937 379.811 7.23184L379.06 5.37815C370.227 8.95627 363.354 14.0665 358.497 20.731L360.114 21.909ZM379.817 7.22943C388.468 3.66085 398.782 1.86 410.785 1.86V-0.140003C398.589 -0.140003 388.003 1.68914 379.054 5.38056L379.817 7.22943ZM410.785 1.86C419.297 1.86 427.193 2.73302 434.478 4.47264L434.943 2.52734C427.487 0.746966 419.434 -0.140003 410.785 -0.140003V1.86ZM434.495 4.47652C441.894 6.10859 448.225 8.49503 453.506 11.6206L454.525 9.89942C449.026 6.64495 442.487 4.1914 434.926 2.52347L434.495 4.47652ZM453.119 10.317L439.094 38.697L440.887 39.583L454.912 11.203L453.119 10.317ZM440.517 38.2897C435.808 35.3746 430.655 33.1912 425.062 31.7372L424.559 33.6728C429.966 35.0788 434.933 37.1854 439.464 39.9903L440.517 38.2897ZM425.067 31.7384C419.593 30.2861 414.006 29.56 408.31 29.56V31.56C413.834 31.56 419.248 32.2639 424.554 33.6716L425.067 31.7384ZM408.31 29.56C404.509 29.56 401.269 29.9504 398.614 30.7583L399.197 32.6717C401.602 31.9396 404.632 31.56 408.31 31.56V29.56ZM398.653 30.7474C396.033 31.4309 393.938 32.4236 392.455 33.7828L393.806 35.2572C394.963 34.1964 396.718 33.319 399.158 32.6826L398.653 30.7474ZM392.423 33.8129C391.084 35.1524 390.315 36.6577 390.315 38.315H392.315C392.315 37.3323 392.757 36.3076 393.838 35.2271L392.423 33.8129ZM390.315 38.315C390.315 40.5327 391.594 42.297 393.764 43.6233L394.807 41.9167C393.017 40.8229 392.315 39.6173 392.315 38.315H390.315ZM393.8 43.6442C395.878 44.7988 398.604 45.8146 401.948 46.7062L402.463 44.7738C399.207 43.9054 396.653 42.9412 394.771 41.8958L393.8 43.6442ZM401.978 46.7138C405.27 47.4819 408.837 48.36 412.681 49.3485L413.179 47.4115C409.323 46.4199 405.741 45.5381 402.433 44.7662L401.978 46.7138ZM412.714 49.3562C416.628 50.2262 420.49 51.3681 424.297 52.7824L424.994 50.9076C421.101 49.4619 417.152 48.2938 413.147 47.4038L412.714 49.3562ZM424.329 52.7937C428.201 54.0843 431.744 55.8565 434.962 58.1092L436.109 56.4708C432.727 54.1034 429.01 52.2457 424.962 50.8963L424.329 52.7937ZM434.981 58.122C438.147 60.233 440.68 62.9749 442.584 66.3603L444.327 65.3797C442.271 61.725 439.524 58.747 436.09 56.4579L434.981 58.122ZM442.591 66.3721C444.46 69.5922 445.425 73.6424 445.425 78.575H447.425C447.425 73.3876 446.41 68.9678 444.32 65.3679L442.591 66.3721ZM445.425 78.575C445.425 86.9587 443.119 94.2841 438.522 100.591L440.139 101.769C445.002 95.0959 447.425 87.3513 447.425 78.575H445.425ZM438.527 100.584C433.925 106.792 427.32 111.696 418.654 115.271L419.417 117.119C428.351 113.434 435.276 108.328 440.134 101.776L438.527 100.584ZM418.65 115.272C410.111 118.839 399.908 120.64 388.015 120.64V122.64C400.103 122.64 410.58 120.811 419.421 117.118L418.65 115.272ZM154.751 226.205L154.308 227.102L154.317 227.106L154.751 226.205ZM133.961 208.055L133.111 208.582L133.115 208.589L133.119 208.596L133.961 208.055ZM131.981 153.11L131.061 152.716L131.057 152.726L131.981 153.11ZM170.756 116.975L171.099 117.914L171.105 117.912L170.756 116.975ZM232.136 117.635L231.73 118.549L231.737 118.552L231.744 118.555L232.136 117.635ZM253.421 134.465L254.033 135.255L254.796 134.664L254.232 133.88L253.421 134.465ZM225.536 156.08L224.744 156.691L225.357 157.484L226.148 156.87L225.536 156.08ZM213.656 146.18L213.247 147.093L213.257 147.097L213.267 147.102L213.656 146.18ZM185.441 146.015L185.816 146.942L185.827 146.937L185.837 146.933L185.441 146.015ZM174.881 153.275L174.149 152.594L174.148 152.595L174.881 153.275ZM168.281 164.33L167.339 163.992L168.281 164.33ZM168.941 190.4L168.076 190.902L168.082 190.912L168.088 190.923L168.941 190.4ZM177.686 198.32L177.238 199.214L177.249 199.22L177.686 198.32ZM204.581 198.98L204.89 199.931L204.9 199.928L204.911 199.924L204.581 198.98ZM218.111 191.225L218.994 190.757L218.434 189.699L217.493 190.439L218.111 191.225ZM232.796 218.945L233.384 219.754L234.085 219.243L233.679 218.477L232.796 218.945ZM211.676 229.175L211.952 230.136L211.964 230.132L211.676 229.175ZM200.126 213.005L199.145 212.81L198.946 213.807L199.947 213.989L200.126 213.005ZM208.871 169.115V168.115H208.05L207.89 168.92L208.871 169.115ZM242.696 169.115L243.676 169.31L243.914 168.115H242.696V169.115ZM232.796 218.945L232.617 219.929L233.585 220.105L233.776 219.14L232.796 218.945ZM185.936 231.64C174.176 231.64 163.934 229.517 155.184 225.304L154.317 227.106C163.387 231.473 173.935 233.64 185.936 233.64V231.64ZM155.193 225.308C146.432 220.982 139.645 215.049 134.802 207.514L133.119 208.596C138.176 216.461 145.25 222.628 154.308 227.102L155.193 225.308ZM134.811 207.528C130.079 199.894 127.701 191.061 127.701 180.995H125.701C125.701 191.389 128.162 200.596 133.111 208.582L134.811 207.528ZM127.701 180.995C127.701 170.993 129.44 161.83 132.904 153.494L131.057 152.726C127.482 161.33 125.701 170.757 125.701 180.995H127.701ZM132.9 153.504C136.476 145.159 141.511 137.959 148.008 131.896L146.643 130.434C139.94 136.691 134.745 144.121 131.061 152.716L132.9 153.504ZM148.008 131.896C154.504 125.833 162.197 121.171 171.099 117.914L170.412 116.036C161.274 119.379 153.347 124.177 146.643 130.434L148.008 131.896ZM171.105 117.912C180.11 114.549 190.055 112.86 200.951 112.86V110.86C189.846 110.86 179.661 112.581 170.406 116.038L171.105 117.912ZM200.951 112.86C212.948 112.86 223.198 114.769 231.73 118.549L232.541 116.721C223.693 112.801 213.153 110.86 200.951 110.86V112.86ZM231.744 118.555C240.383 122.227 247.33 127.723 252.609 135.05L254.232 133.88C248.731 126.247 241.488 120.523 232.527 116.715L231.744 118.555ZM252.808 133.675L224.923 155.29L226.148 156.87L254.033 135.255L252.808 133.675ZM226.327 155.469C222.517 150.538 218.428 147.105 214.044 145.258L213.267 147.102C217.243 148.775 221.074 151.942 224.744 156.691L226.327 155.469ZM214.064 145.267C209.732 143.329 204.748 142.375 199.136 142.375V144.375C204.523 144.375 209.219 145.291 213.247 147.093L214.064 145.267ZM199.136 142.375C193.958 142.375 189.255 143.276 185.044 145.097L185.837 146.933C189.766 145.234 194.193 144.375 199.136 144.375V142.375ZM185.065 145.088C180.861 146.793 177.219 149.296 174.149 152.594L175.612 153.956C178.482 150.874 181.88 148.537 185.816 146.942L185.065 145.088ZM174.148 152.595C171.188 155.782 168.921 159.586 167.339 163.992L169.222 164.668C170.72 160.494 172.853 156.928 175.613 153.955L174.148 152.595ZM167.339 163.992C165.756 168.404 164.971 173.25 164.971 178.52H166.971C166.971 173.45 167.726 168.836 169.222 164.668L167.339 163.992ZM164.971 178.52C164.971 183.181 165.995 187.319 168.076 190.902L169.805 189.898C167.926 186.661 166.971 182.879 166.971 178.52H164.971ZM168.088 190.923C170.28 194.499 173.339 197.265 177.238 199.214L178.133 197.426C174.552 195.635 171.781 193.121 169.793 189.877L168.088 190.923ZM177.249 199.22C181.263 201.169 185.984 202.125 191.381 202.125V200.125C186.217 200.125 181.808 199.211 178.122 197.42L177.249 199.22ZM191.381 202.125C195.891 202.125 200.395 201.392 204.89 199.931L204.271 198.029C199.966 199.428 195.67 200.125 191.381 200.125V202.125ZM204.911 199.924C209.438 198.339 214.043 195.692 218.728 192.011L217.493 190.439C212.938 194.018 208.523 196.541 204.25 198.036L204.911 199.924ZM217.227 191.693L231.912 219.413L233.679 218.477L218.994 190.757L217.227 191.693ZM232.207 218.136C226.258 222.463 219.322 225.826 211.387 228.218L211.964 230.132C220.089 227.684 227.233 224.227 233.384 219.754L232.207 218.136ZM211.399 228.214C203.467 230.496 194.981 231.64 185.936 231.64V233.64C195.15 233.64 203.824 232.474 211.952 230.136L211.399 228.214ZM201.106 213.2L209.851 169.31L207.89 168.92L199.145 212.81L201.106 213.2ZM208.871 170.115H242.696V168.115H208.871V170.115ZM241.715 168.92L231.815 218.75L233.776 219.14L243.676 169.31L241.715 168.92ZM232.974 217.961L200.304 212.021L199.947 213.989L232.617 219.929L232.974 217.961ZM297.237 157.4V156.4H296.417L296.257 157.204L297.237 157.4ZM348.717 157.4L349.698 157.596L349.937 156.4H348.717V157.4ZM343.107 185.45V186.45H343.927L344.088 185.646L343.107 185.45ZM291.627 185.45L290.646 185.254L290.407 186.45H291.627V185.45ZM291.132 200.63L290.152 200.433L289.912 201.63H291.132V200.63ZM349.047 200.63L350.027 200.828L350.27 199.63H349.047V200.63ZM343.107 230V231H343.925L344.087 230.198L343.107 230ZM247.077 230L246.096 229.804L245.857 231H247.077V230ZM270.177 114.5V113.5H269.357L269.196 114.304L270.177 114.5ZM364.062 114.5L365.042 114.698L365.285 113.5H364.062V114.5ZM358.122 143.87V144.87H358.94L359.102 144.068L358.122 143.87ZM302.517 143.87V142.87H301.698L301.537 143.673L302.517 143.87ZM297.237 158.4H348.717V156.4H297.237V158.4ZM347.736 157.204L342.126 185.254L344.088 185.646L349.698 157.596L347.736 157.204ZM343.107 184.45H291.627V186.45H343.107V184.45ZM292.608 185.646L298.218 157.596L296.257 157.204L290.646 185.254L292.608 185.646ZM291.132 201.63H349.047V199.63H291.132V201.63ZM348.067 200.432L342.127 229.802L344.087 230.198L350.027 200.828L348.067 200.432ZM343.107 229H247.077V231H343.107V229ZM248.058 230.196L271.158 114.696L269.196 114.304L246.096 229.804L248.058 230.196ZM270.177 115.5H364.062V113.5H270.177V115.5ZM363.082 114.302L357.142 143.672L359.102 144.068L365.042 114.698L363.082 114.302ZM358.122 142.87H302.517V144.87H358.122V142.87ZM301.537 143.673L290.152 200.433L292.113 200.827L303.498 144.067L301.537 143.673ZM383.178 230L382.197 229.805L381.959 231H383.178V230ZM400.173 144.695L401.153 144.89L401.391 143.695H400.173V144.695ZM366.348 144.695L365.367 144.497L365.125 145.695H366.348V144.695ZM372.453 114.5V113.5H371.635L371.472 114.302L372.453 114.5ZM479.043 114.5L480.023 114.698L480.265 113.5H479.043V114.5ZM472.938 144.695V145.695H473.756L473.918 144.893L472.938 144.695ZM439.113 144.695V143.695H438.292L438.132 144.5L439.113 144.695ZM422.118 230V231H422.938L423.098 230.195L422.118 230ZM384.158 230.195L401.153 144.89L399.192 144.5L382.197 229.805L384.158 230.195ZM400.173 143.695H366.348V145.695H400.173V143.695ZM367.328 144.893L373.433 114.698L371.472 114.302L365.367 144.497L367.328 144.893ZM372.453 115.5H479.043V113.5H372.453V115.5ZM478.062 114.302L471.957 144.497L473.918 144.893L480.023 114.698L478.062 114.302ZM472.938 143.695H439.113V145.695H472.938V143.695ZM438.132 144.5L421.137 229.805L423.098 230.195L440.093 144.89L438.132 144.5ZM422.118 229H383.178V231H422.118V229ZM515.524 230L514.544 229.804L514.305 231H515.524V230ZM538.624 114.5V113.5H537.805L537.644 114.304L538.624 114.5ZM577.564 114.5L578.545 114.696L578.784 113.5H577.564V114.5ZM554.464 230V231H555.284L555.445 230.196L554.464 230ZM516.505 230.196L539.605 114.696L537.644 114.304L514.544 229.804L516.505 230.196ZM538.624 115.5H577.564V113.5H538.624V115.5ZM576.584 114.304L553.484 229.804L555.445 230.196L578.545 114.696L576.584 114.304ZM554.464 229H515.524V231H554.464V229ZM573.21 230L572.229 229.804L571.99 231H573.21V230ZM596.31 114.5V113.5H595.49L595.329 114.304L596.31 114.5ZM628.32 114.5L629.171 113.975L628.878 113.5H628.32V114.5ZM671.715 184.79V185.79H673.508L672.566 184.265L671.715 184.79ZM658.185 184.79L657.204 184.594L656.966 185.79H658.185V184.79ZM672.21 114.5V113.5H671.39L671.229 114.304L672.21 114.5ZM710.16 114.5L711.14 114.696L711.38 113.5H710.16V114.5ZM687.06 230V231H687.88L688.04 230.196L687.06 230ZM655.05 230L654.199 230.525L654.492 231H655.05V230ZM611.655 159.71V158.71H609.862L610.804 160.235L611.655 159.71ZM625.185 159.71L626.166 159.906L626.404 158.71H625.185V159.71ZM611.16 230V231H611.98L612.141 230.196L611.16 230ZM574.19 230.196L597.29 114.696L595.329 114.304L572.229 229.804L574.19 230.196ZM596.31 115.5H628.32V113.5H596.31V115.5ZM627.469 115.025L670.864 185.315L672.566 184.265L629.171 113.975L627.469 115.025ZM671.715 183.79H658.185V185.79H671.715V183.79ZM659.166 184.986L673.191 114.696L671.229 114.304L657.204 184.594L659.166 184.986ZM672.21 115.5H710.16V113.5H672.21V115.5ZM709.179 114.304L686.079 229.804L688.04 230.196L711.14 114.696L709.179 114.304ZM687.06 229H655.05V231H687.06V229ZM655.901 229.475L612.506 159.185L610.804 160.235L654.199 230.525L655.901 229.475ZM611.655 160.71H625.185V158.71H611.655V160.71ZM624.204 159.514L610.179 229.804L612.141 230.196L626.166 159.906L624.204 159.514ZM611.16 229H573.21V231H611.16V229ZM46.41 341L45.4293 340.805L45.1911 342H46.41V341ZM63.405 255.695L64.3857 255.89L64.6239 254.695H63.405V255.695ZM29.58 255.695L28.5998 255.497L28.3576 256.695H29.58V255.695ZM35.685 225.5V224.5H34.867L34.7048 225.302L35.685 225.5ZM142.275 225.5L143.255 225.698L143.497 224.5H142.275V225.5ZM136.17 255.695V256.695H136.988L137.15 255.893L136.17 255.695ZM102.345 255.695V254.695H101.525L101.364 255.5L102.345 255.695ZM85.35 341V342H86.1704L86.3307 341.195L85.35 341ZM47.3907 341.195L64.3857 255.89L62.4243 255.5L45.4293 340.805L47.3907 341.195ZM63.405 254.695H29.58V256.695H63.405V254.695ZM30.5602 255.893L36.6652 225.698L34.7048 225.302L28.5998 255.497L30.5602 255.893ZM35.685 226.5H142.275V224.5H35.685V226.5ZM141.295 225.302L135.19 255.497L137.15 255.893L143.255 225.698L141.295 225.302ZM136.17 254.695H102.345V256.695H136.17V254.695ZM101.364 255.5L84.3693 340.805L86.3307 341.195L103.326 255.89L101.364 255.5ZM85.35 340H46.41V342H85.35V340ZM161.503 337.04L161.051 337.932L161.055 337.934L161.503 337.04ZM141.208 318.89L140.352 319.408L140.357 319.415L140.361 319.422L141.208 318.89ZM139.393 264.11L138.473 263.716L138.471 263.722L139.393 264.11ZM177.673 227.975L178.02 228.913L178.03 228.909L177.673 227.975ZM237.898 229.46L237.446 230.352L237.45 230.354L237.898 229.46ZM258.193 247.775L257.337 248.293L257.342 248.3L257.346 248.307L258.193 247.775ZM260.008 302.555L259.089 302.161L259.086 302.167L260.008 302.555ZM244.993 324.335L245.681 325.06L244.993 324.335ZM221.893 338.69L222.24 339.628L222.25 339.624L221.893 338.69ZM208.693 309.32L208.245 308.426L208.235 308.431L208.693 309.32ZM218.263 301.565L217.482 300.94L218.263 301.565ZM224.203 290.345L225.156 290.646L225.158 290.639L224.203 290.345ZM223.378 265.1L222.489 265.559L222.498 265.576L222.508 265.593L223.378 265.1ZM215.623 257.18L215.13 258.05L215.142 258.057L215.623 257.18ZM190.873 257.18L191.32 258.074L190.873 257.18ZM181.303 264.935L182.084 265.56L181.303 264.935ZM175.363 276.32L176.316 276.621L176.318 276.614L175.363 276.32ZM176.023 301.4L175.134 301.859L175.14 301.87L175.146 301.881L176.023 301.4ZM183.778 309.32L183.285 310.19L183.297 310.197L183.778 309.32ZM192.688 342.64C180.819 342.64 170.584 340.463 161.95 336.146L161.055 337.934C170.021 342.417 180.576 344.64 192.688 344.64V342.64ZM161.954 336.148C153.414 331.824 146.791 325.893 142.054 318.358L140.361 319.422C145.304 327.287 152.211 333.456 161.051 337.932L161.954 336.148ZM142.063 318.372C137.438 310.735 135.113 301.953 135.113 291.995H133.113C133.113 302.277 135.518 311.425 140.352 319.408L142.063 318.372ZM135.113 291.995C135.113 281.881 136.852 272.72 140.314 264.498L138.471 263.722C134.893 272.22 133.113 281.649 133.113 291.995H135.113ZM140.312 264.504C143.89 256.155 148.873 248.954 155.261 242.89L153.884 241.44C147.293 247.696 142.155 255.125 138.474 263.716L140.312 264.504ZM155.261 242.89C161.647 236.829 169.229 232.169 178.02 228.913L177.325 227.037C168.296 230.381 160.478 235.181 153.884 241.44L155.261 242.89ZM178.03 228.909C186.814 225.547 196.427 223.86 206.878 223.86V221.86C196.209 221.86 186.351 223.583 177.315 227.041L178.03 228.909ZM206.878 223.86C218.746 223.86 228.925 226.038 237.446 230.352L238.349 228.568C229.491 224.082 218.989 221.86 206.878 221.86V223.86ZM237.45 230.354C246.095 234.677 252.713 240.657 257.337 248.293L259.048 247.257C254.213 239.273 247.3 233.043 238.345 228.566L237.45 230.354ZM257.346 248.307C262.075 255.83 264.453 264.551 264.453 274.505H266.453C266.453 264.219 263.991 255.12 259.039 247.243L257.346 248.307ZM264.453 274.505C264.453 284.615 262.66 293.829 259.089 302.161L260.927 302.949C264.616 294.341 266.453 284.855 266.453 274.505H264.453ZM259.086 302.167C255.619 310.401 250.693 317.546 244.304 323.61L245.681 325.06C252.273 318.804 257.356 311.429 260.929 302.943L259.086 302.167ZM244.304 323.61C237.916 329.673 230.33 334.39 221.535 337.756L222.25 339.624C231.275 336.17 239.089 331.317 245.681 325.06L244.304 323.61ZM221.545 337.752C212.758 341.007 203.142 342.64 192.688 342.64V344.64C203.353 344.64 213.207 342.973 222.24 339.628L221.545 337.752ZM195.988 313.125C200.958 313.125 205.355 312.164 209.151 310.209L208.235 308.431C204.77 310.216 200.698 311.125 195.988 311.125V313.125ZM209.14 310.214C213.011 308.279 216.314 305.601 219.044 302.19L217.482 300.94C214.931 304.129 211.855 306.621 208.245 308.426L209.14 310.214ZM219.044 302.19C221.763 298.79 223.801 294.939 225.156 290.646L223.249 290.044C221.965 294.111 220.042 297.74 217.482 300.94L219.044 302.19ZM225.158 290.639C226.509 286.249 227.183 281.639 227.183 276.815H225.183C225.183 281.451 224.536 285.861 223.247 290.051L225.158 290.639ZM227.183 276.815C227.183 272.165 226.218 268.083 224.248 264.607L222.508 265.593C224.278 268.717 225.183 272.445 225.183 276.815H227.183ZM224.266 264.641C222.414 261.052 219.686 258.268 216.104 256.303L215.142 258.057C218.38 259.832 220.822 262.328 222.489 265.559L224.266 264.641ZM216.116 256.31C212.632 254.336 208.438 253.375 203.578 253.375V255.375C208.177 255.375 212.013 256.284 215.13 258.05L216.116 256.31ZM203.578 253.375C198.713 253.375 194.322 254.338 190.425 256.286L191.32 258.074C194.904 256.282 198.982 255.375 203.578 255.375V253.375ZM190.425 256.286C186.555 258.221 183.251 260.899 180.522 264.31L182.084 265.56C184.634 262.371 187.711 259.879 191.32 258.074L190.425 256.286ZM180.522 264.31C177.798 267.715 175.762 271.623 174.407 276.026L176.318 276.614C177.604 272.437 179.527 268.755 182.084 265.56L180.522 264.31ZM174.409 276.019C173.056 280.304 172.383 284.861 172.383 289.685H174.383C174.383 285.049 175.029 280.696 176.316 276.621L174.409 276.019ZM172.383 289.685C172.383 294.221 173.291 298.287 175.134 301.859L176.911 300.941C175.235 297.693 174.383 293.949 174.383 289.685H172.383ZM175.146 301.881C177.103 305.449 179.819 308.226 183.285 310.19L184.271 308.45C181.137 306.674 178.683 304.171 176.899 300.919L175.146 301.881ZM183.297 310.197C186.883 312.163 191.126 313.125 195.988 313.125V311.125C191.39 311.125 187.492 310.217 184.258 308.443L183.297 310.197ZM295.756 336.875L295.257 337.742L295.266 337.747L295.756 336.875ZM278.596 317.735L277.667 318.106L277.67 318.114L277.674 318.121L278.596 317.735ZM276.946 289.025L277.926 289.223L277.927 289.221L276.946 289.025ZM289.651 225.5V224.5H288.831L288.67 225.304L289.651 225.5ZM328.591 225.5L329.572 225.696L329.81 224.5H328.591V225.5ZM316.051 288.365L315.07 288.169L315.068 288.179L316.051 288.365ZM315.226 298.925L316.223 298.851L315.226 298.925ZM317.371 306.35L316.518 306.871L316.528 306.888L316.539 306.905L317.371 306.35ZM322.651 310.805L322.241 311.717L322.26 311.726L322.28 311.733L322.651 310.805ZM340.141 309.815L339.652 308.943L339.645 308.947L339.637 308.951L340.141 309.815ZM346.906 302.225L346.023 301.756L346.017 301.767L346.012 301.778L346.906 302.225ZM351.361 288.365L350.38 288.169L350.379 288.176L351.361 288.365ZM363.901 225.5V224.5H363.081L362.92 225.304L363.901 225.5ZM402.181 225.5L403.162 225.696L403.401 224.5H402.181V225.5ZM389.146 290.675L388.165 290.479L388.165 290.481L389.146 290.675ZM368.191 330.11L368.84 330.87L368.191 330.11ZM325.786 342.64C313.917 342.64 304.088 340.408 296.246 336.003L295.266 337.747C303.484 342.363 313.675 344.64 325.786 344.64V342.64ZM296.255 336.008C288.405 331.492 282.839 325.276 279.518 317.349L277.674 318.121C281.173 326.474 287.047 333.018 295.257 337.742L296.255 336.008ZM279.524 317.364C276.313 309.335 275.755 299.97 277.926 289.223L275.966 288.827C273.737 299.86 274.279 309.635 277.667 318.106L279.524 317.364ZM277.927 289.221L290.632 225.696L288.67 225.304L275.965 288.829L277.927 289.221ZM289.651 226.5H328.591V224.5H289.651V226.5ZM327.61 225.304L315.07 288.169L317.032 288.561L329.572 225.696L327.61 225.304ZM315.068 288.179C314.288 292.304 314 295.916 314.229 298.999L316.223 298.851C316.012 295.994 316.274 292.566 317.034 288.551L315.068 288.179ZM314.229 298.999C314.457 302.084 315.205 304.723 316.518 306.871L318.224 305.829C317.117 304.017 316.435 301.706 316.223 298.851L314.229 298.999ZM316.539 306.905C317.965 309.043 319.872 310.651 322.241 311.717L323.061 309.893C321.03 308.979 319.417 307.617 318.203 305.795L316.539 306.905ZM322.28 311.733C324.627 312.673 327.4 313.125 330.571 313.125V311.125C327.582 311.125 325.075 310.697 323.022 309.877L322.28 311.733ZM330.571 313.125C334.449 313.125 337.821 312.326 340.645 310.679L339.637 308.951C337.181 310.384 334.173 311.125 330.571 311.125V313.125ZM340.63 310.688C343.593 309.028 345.973 306.327 347.8 302.672L346.012 301.778C344.319 305.163 342.188 307.522 339.652 308.943L340.63 310.688ZM347.789 302.694C349.722 299.056 351.232 294.331 352.343 288.554L350.379 288.176C349.29 293.839 347.83 298.354 346.023 301.756L347.789 302.694ZM352.342 288.561L364.882 225.696L362.92 225.304L350.38 288.169L352.342 288.561ZM363.901 226.5H402.181V224.5H363.901V226.5ZM401.2 225.304L388.165 290.479L390.127 290.871L403.162 225.696L401.2 225.304ZM388.165 290.481C384.787 307.591 377.889 320.511 367.541 329.35L368.84 330.87C379.613 321.669 386.685 308.299 390.127 290.869L388.165 290.481ZM367.541 329.35C357.208 338.176 343.325 342.64 325.786 342.64V344.64C343.667 344.64 358.054 340.084 368.84 330.87L367.541 329.35ZM431.416 337.205L430.973 338.102L430.982 338.106L431.416 337.205ZM410.626 319.055L409.776 319.582L409.78 319.589L409.784 319.596L410.626 319.055ZM408.646 264.11L407.726 263.716L407.722 263.726L408.646 264.11ZM446.926 227.975L447.273 228.913L447.283 228.909L446.926 227.975ZM505.831 228.8L505.412 229.708L505.831 228.8ZM524.971 245.96L525.587 246.748L526.261 246.22L525.844 245.472L524.971 245.96ZM496.921 267.905L496.05 268.396L496.621 269.409L497.537 268.693L496.921 267.905ZM487.516 258.005L486.983 258.852L486.992 258.857L487.001 258.862L487.516 258.005ZM461.116 257.015L461.519 257.93L461.531 257.924L461.116 257.015ZM451.381 264.275L452.127 264.941L452.132 264.935L452.138 264.928L451.381 264.275ZM444.946 275.33L444.004 274.992L444.946 275.33ZM445.606 301.4L444.741 301.902L445.606 301.4ZM453.856 309.32L453.386 310.203L453.398 310.209L453.856 309.32ZM479.596 308.99L479.167 308.087L479.158 308.091L479.596 308.99ZM492.136 298.76L492.827 298.037L492.055 297.299L491.369 298.118L492.136 298.76ZM515.071 320.705L515.844 321.339L516.431 320.623L515.762 319.982L515.071 320.705ZM491.476 338.69L491.835 339.623L491.841 339.621L491.476 338.69ZM462.601 342.64C450.841 342.64 440.6 340.517 431.849 336.304L430.982 338.106C440.052 342.473 450.6 344.64 462.601 344.64V342.64ZM431.858 336.308C423.097 331.982 416.31 326.049 411.467 318.514L409.784 319.596C414.841 327.461 421.915 333.628 430.973 338.102L431.858 336.308ZM411.476 318.528C406.745 310.894 404.366 302.061 404.366 291.995H402.366C402.366 302.389 404.827 311.596 409.776 319.582L411.476 318.528ZM404.366 291.995C404.366 281.993 406.105 272.83 409.569 264.494L407.722 263.726C404.147 272.33 402.366 281.757 402.366 291.995H404.366ZM409.565 264.504C413.143 256.155 418.126 248.954 424.514 242.89L423.137 241.44C416.546 247.696 411.408 255.125 407.726 263.716L409.565 264.504ZM424.514 242.89C430.9 236.829 438.482 232.169 447.273 228.913L446.578 227.037C437.549 230.381 429.731 235.181 423.137 241.44L424.514 242.89ZM447.283 228.909C456.066 225.547 465.733 223.86 476.296 223.86V221.86C465.518 221.86 455.605 223.583 446.568 227.041L447.283 228.909ZM476.296 223.86C487.286 223.86 496.984 225.818 505.412 229.708L506.25 227.892C497.517 223.862 487.525 221.86 476.296 221.86V223.86ZM505.412 229.708C513.82 233.589 520.031 239.171 524.098 246.448L525.844 245.472C521.55 237.789 515.001 231.931 506.25 227.892L505.412 229.708ZM524.354 245.172L496.304 267.117L497.537 268.693L525.587 246.748L524.354 245.172ZM497.792 267.414C495.295 262.988 492.043 259.555 488.03 257.148L487.001 258.862C490.688 261.075 493.706 264.242 496.05 268.396L497.792 267.414ZM488.048 257.158C484.014 254.623 479.258 253.375 473.821 253.375V255.375C478.943 255.375 483.317 256.547 486.983 258.852L488.048 257.158ZM473.821 253.375C469.07 253.375 464.692 254.281 460.7 256.106L461.531 257.924C465.239 256.229 469.331 255.375 473.821 255.375V253.375ZM460.712 256.1C456.832 257.812 453.467 260.323 450.623 263.622L452.138 264.928C454.794 261.847 457.919 259.518 461.519 257.93L460.712 256.1ZM450.635 263.609C447.791 266.794 445.583 270.594 444.004 274.992L445.887 275.668C447.388 271.486 449.471 267.916 452.127 264.941L450.635 263.609ZM444.004 274.992C442.421 279.404 441.636 284.25 441.636 289.52H443.636C443.636 284.45 444.391 279.836 445.887 275.668L444.004 274.992ZM441.636 289.52C441.636 294.181 442.66 298.319 444.741 301.902L446.47 300.898C444.591 297.661 443.636 293.879 443.636 289.52H441.636ZM444.741 301.902C446.816 305.475 449.703 308.247 453.386 310.203L454.325 308.437C450.968 306.653 448.356 304.145 446.47 300.898L444.741 301.902ZM453.398 310.209C457.19 312.163 461.532 313.125 466.396 313.125V311.125C461.8 311.125 457.781 310.217 454.314 308.431L453.398 310.209ZM466.396 313.125C471.066 313.125 475.615 312.042 480.034 309.889L479.158 308.091C474.996 310.118 470.745 311.125 466.396 311.125V313.125ZM480.025 309.893C484.585 307.727 488.874 304.214 492.902 299.402L491.369 298.118C487.477 302.766 483.407 306.073 479.167 308.087L480.025 309.893ZM491.444 299.483L514.379 321.428L515.762 319.982L492.827 298.037L491.444 299.483ZM514.298 320.071C507.345 328.544 499.614 334.422 491.11 337.759L491.841 339.621C500.717 336.138 508.716 330.026 515.844 321.339L514.298 320.071ZM491.117 337.757C482.668 341.006 473.167 342.64 462.601 342.64V344.64C473.374 344.64 483.123 342.974 491.835 339.623L491.117 337.757ZM617.724 225.5V224.5H616.904L616.743 225.304L617.724 225.5ZM656.664 225.5L657.644 225.696L657.884 224.5H656.664V225.5ZM633.564 341V342H634.384L634.544 341.196L633.564 341ZM594.624 341L593.643 340.804L593.404 342H594.624V341ZM558.654 341V342H559.474L559.634 341.196L558.654 341ZM519.714 341L518.733 340.804L518.494 342H519.714V341ZM542.814 225.5V224.5H541.994L541.833 225.304L542.814 225.5ZM581.754 225.5L582.734 225.696L582.974 224.5H581.754V225.5ZM605.679 298.43V299.43H606.498L606.659 298.627L605.679 298.43ZM564.594 298.43L563.613 298.233L563.373 299.43H564.594V298.43ZM571.029 266.42V265.42H570.21L570.048 266.223L571.029 266.42ZM612.114 266.42L613.094 266.617L613.335 265.42H612.114V266.42ZM617.724 226.5H656.664V224.5H617.724V226.5ZM655.683 225.304L632.583 340.804L634.544 341.196L657.644 225.696L655.683 225.304ZM633.564 340H594.624V342H633.564V340ZM595.604 341.196L618.704 225.696L616.743 225.304L593.643 340.804L595.604 341.196ZM558.654 340H519.714V342H558.654V340ZM520.694 341.196L543.794 225.696L541.833 225.304L518.733 340.804L520.694 341.196ZM542.814 226.5H581.754V224.5H542.814V226.5ZM580.773 225.304L557.673 340.804L559.634 341.196L582.734 225.696L580.773 225.304ZM605.679 297.43H564.594V299.43H605.679V297.43ZM565.574 298.627L572.009 266.617L570.048 266.223L563.613 298.233L565.574 298.627ZM571.029 267.42H612.114V265.42H571.029V267.42ZM611.133 266.223L604.698 298.233L606.659 298.627L613.094 266.617L611.133 266.223Z" fill="white" mask="url(#path-1-outside-1_3772_881)"/>
<path d="M477.667 58.5C477.667 61.4455 480.054 63.8333 483 63.8333C485.946 63.8333 488.333 61.4455 488.333 58.5C488.333 55.5545 485.946 53.1667 483 53.1667C480.054 53.1667 477.667 55.5545 477.667 58.5ZM483 59.5H715V57.5H483V59.5Z" fill="url(#paint0_linear_3772_881)"/>
<path d="M1 170C0.447715 170 4.82823e-08 170.448 0 171C-4.82823e-08 171.552 0.447715 172 1 172L1 170ZM83.6667 171C83.6667 173.946 86.0545 176.333 89 176.333C91.9455 176.333 94.3333 173.946 94.3333 171C94.3333 168.054 91.9455 165.667 89 165.667C86.0545 165.667 83.6667 168.054 83.6667 171ZM1 172L89 172L89 170L1 170L1 172Z" fill="url(#paint1_linear_3772_881)"/>
<defs>
<linearGradient id="paint0_linear_3772_881" x1="526.5" y1="59.4991" x2="712" y2="59.4991" gradientUnits="userSpaceOnUse">
<stop stop-color="white"/>
<stop offset="1" stop-color="white" stop-opacity="0"/>
</linearGradient>
<linearGradient id="paint1_linear_3772_881" x1="45" y1="171" x2="1.5" y2="171" gradientUnits="userSpaceOnUse">
<stop stop-color="white"/>
<stop offset="1" stop-color="white" stop-opacity="0"/>
</linearGradient>
</defs>
</svg>
