<svg width="1440" height="387" viewBox="0 0 1440 387" fill="none" xmlns="http://www.w3.org/2000/svg">
<g clip-path="url(#clip0_115_1037)">
<rect width="1440" height="387" fill="black"/>
<g opacity="0.65" filter="url(#filter0_f_115_1037)">
<circle cx="-43" cy="-323" r="495" fill="#3B82F6"/>
</g>
<g opacity="0.65" filter="url(#filter1_f_115_1037)">
<circle cx="-43" cy="610" r="495" fill="#41CBBF"/>
</g>
<path opacity="0.03" d="M35 116.25C28.0833 116.25 21.8333 114.5 16.25 111C10.75 107.5 6.41667 102.417 3.25 95.75C0.0833337 89 -1.5 80.8333 -1.5 71.25C-1.5 61.6667 0.0833337 53.5417 3.25 46.875C6.41667 40.125 10.75 35 16.25 31.5C21.8333 28 28.0833 26.25 35 26.25C42 26.25 48.25 28 53.75 31.5C59.25 35 63.5833 40.125 66.75 46.875C70 53.5417 71.625 61.6667 71.625 71.25C71.625 80.8333 70 89 66.75 95.75C63.5833 102.417 59.25 107.5 53.75 111C48.25 114.5 42 116.25 35 116.25ZM35 102.125C39.0833 102.125 42.625 101.042 45.625 98.875C48.625 96.625 50.9583 93.2083 52.625 88.625C54.375 84.0417 55.25 78.25 55.25 71.25C55.25 64.1667 54.375 58.375 52.625 53.875C50.9583 49.2917 48.625 45.9167 45.625 43.75C42.625 41.5 39.0833 40.375 35 40.375C31.0833 40.375 27.5833 41.5 24.5 43.75C21.5 45.9167 19.125 49.2917 17.375 53.875C15.7083 58.375 14.875 64.1667 14.875 71.25C14.875 78.25 15.7083 84.0417 17.375 88.625C19.125 93.2083 21.5 96.625 24.5 98.875C27.5833 101.042 31.0833 102.125 35 102.125ZM96.4844 115V33.75L103.609 41.125H77.9844V27.5H112.734V115H96.4844ZM144.092 115V33.75L151.217 41.125H125.592V27.5H160.342V115H144.092ZM214.199 116.25C207.283 116.25 201.033 114.5 195.449 111C189.949 107.5 185.616 102.417 182.449 95.75C179.283 89 177.699 80.8333 177.699 71.25C177.699 61.6667 179.283 53.5417 182.449 46.875C185.616 40.125 189.949 35 195.449 31.5C201.033 28 207.283 26.25 214.199 26.25C221.199 26.25 227.449 28 232.949 31.5C238.449 35 242.783 40.125 245.949 46.875C249.199 53.5417 250.824 61.6667 250.824 71.25C250.824 80.8333 249.199 89 245.949 95.75C242.783 102.417 238.449 107.5 232.949 111C227.449 114.5 221.199 116.25 214.199 116.25ZM214.199 102.125C218.283 102.125 221.824 101.042 224.824 98.875C227.824 96.625 230.158 93.2083 231.824 88.625C233.574 84.0417 234.449 78.25 234.449 71.25C234.449 64.1667 233.574 58.375 231.824 53.875C230.158 49.2917 227.824 45.9167 224.824 43.75C221.824 41.5 218.283 40.375 214.199 40.375C210.283 40.375 206.783 41.5 203.699 43.75C200.699 45.9167 198.324 49.2917 196.574 53.875C194.908 58.375 194.074 64.1667 194.074 71.25C194.074 78.25 194.908 84.0417 196.574 88.625C198.324 93.2083 200.699 96.625 203.699 98.875C206.783 101.042 210.283 102.125 214.199 102.125ZM275.684 115V33.75L282.809 41.125H257.184V27.5H291.934V115H275.684Z" fill="white"/>
<path opacity="0.03" d="M107 222.25C100.083 222.25 93.8333 220.5 88.25 217C82.75 213.5 78.4167 208.417 75.25 201.75C72.0833 195 70.5 186.833 70.5 177.25C70.5 167.667 72.0833 159.542 75.25 152.875C78.4167 146.125 82.75 141 88.25 137.5C93.8333 134 100.083 132.25 107 132.25C114 132.25 120.25 134 125.75 137.5C131.25 141 135.583 146.125 138.75 152.875C142 159.542 143.625 167.667 143.625 177.25C143.625 186.833 142 195 138.75 201.75C135.583 208.417 131.25 213.5 125.75 217C120.25 220.5 114 222.25 107 222.25ZM107 208.125C111.083 208.125 114.625 207.042 117.625 204.875C120.625 202.625 122.958 199.208 124.625 194.625C126.375 190.042 127.25 184.25 127.25 177.25C127.25 170.167 126.375 164.375 124.625 159.875C122.958 155.292 120.625 151.917 117.625 149.75C114.625 147.5 111.083 146.375 107 146.375C103.083 146.375 99.5833 147.5 96.5 149.75C93.5 151.917 91.125 155.292 89.375 159.875C87.7083 164.375 86.875 170.167 86.875 177.25C86.875 184.25 87.7083 190.042 89.375 194.625C91.125 199.208 93.5 202.625 96.5 204.875C99.5833 207.042 103.083 208.125 107 208.125ZM168.484 221V139.75L175.609 147.125H149.984V133.5H184.734V221H168.484ZM216.092 221V139.75L223.217 147.125H197.592V133.5H232.342V221H216.092ZM286.199 222.25C279.283 222.25 273.033 220.5 267.449 217C261.949 213.5 257.616 208.417 254.449 201.75C251.283 195 249.699 186.833 249.699 177.25C249.699 167.667 251.283 159.542 254.449 152.875C257.616 146.125 261.949 141 267.449 137.5C273.033 134 279.283 132.25 286.199 132.25C293.199 132.25 299.449 134 304.949 137.5C310.449 141 314.783 146.125 317.949 152.875C321.199 159.542 322.824 167.667 322.824 177.25C322.824 186.833 321.199 195 317.949 201.75C314.783 208.417 310.449 213.5 304.949 217C299.449 220.5 293.199 222.25 286.199 222.25ZM286.199 208.125C290.283 208.125 293.824 207.042 296.824 204.875C299.824 202.625 302.158 199.208 303.824 194.625C305.574 190.042 306.449 184.25 306.449 177.25C306.449 170.167 305.574 164.375 303.824 159.875C302.158 155.292 299.824 151.917 296.824 149.75C293.824 147.5 290.283 146.375 286.199 146.375C282.283 146.375 278.783 147.5 275.699 149.75C272.699 151.917 270.324 155.292 268.574 159.875C266.908 164.375 266.074 170.167 266.074 177.25C266.074 184.25 266.908 190.042 268.574 194.625C270.324 199.208 272.699 202.625 275.699 204.875C278.783 207.042 282.283 208.125 286.199 208.125ZM347.684 221V139.75L354.809 147.125H329.184V133.5H363.934V221H347.684Z" fill="white"/>
<path opacity="0.03" d="M473.178 158.223L316.145 123.982L310.703 89.3064L449.696 8.60432L454.936 41.9955L327.407 113.99L324.484 95.3679L467.937 124.831L473.178 158.223ZM494.979 226.189L553.463 -92.8875L589.423 -98.5314L530.939 220.545L494.979 226.189ZM633.693 133.03L628.452 99.6387L755.982 27.6443L758.904 46.2664L615.451 16.8028L610.21 -16.5885L767.244 17.6523L772.686 52.3278L633.693 133.03Z" fill="url(#paint0_linear_115_1037)"/>
<path opacity="0.03" d="M71.375 442.25C40.175 442.25 15.6917 433.475 -2.075 415.925C-19.625 398.375 -28.4 373.025 -28.4 339.875V211.5H13.85V338.25C13.85 361.65 18.8333 378.658 28.8 389.275C38.9833 399.892 53.2833 405.2 71.7 405.2C90.1167 405.2 104.308 399.892 114.275 389.275C124.242 378.658 129.225 361.65 129.225 338.25V211.5H170.825V339.875C170.825 373.025 161.942 398.375 144.175 415.925C126.625 433.475 102.358 442.25 71.375 442.25ZM229.995 439V211.5H272.245V439H229.995ZM293.479 471.5L400.729 165.35H437.13L329.879 471.5H293.479ZM552.21 442.25C521.01 442.25 496.527 433.475 478.76 415.925C461.21 398.375 452.435 373.025 452.435 339.875V211.5H494.685V338.25C494.685 361.65 499.668 378.658 509.635 389.275C519.818 399.892 534.118 405.2 552.535 405.2C570.952 405.2 585.143 399.892 595.11 389.275C605.077 378.658 610.06 361.65 610.06 338.25V211.5H651.66V339.875C651.66 373.025 642.777 398.375 625.01 415.925C607.46 433.475 583.193 442.25 552.21 442.25ZM680.031 439L775.906 307.05V338.9L684.581 211.5H732.356L800.281 305.75L780.781 306.075L848.056 211.5H893.881L803.206 336.625V306.075L899.731 439H850.981L779.481 338.9H798.656L728.131 439H680.031Z" fill="url(#paint1_linear_115_1037)"/>
</g>
<defs>
<filter id="filter0_f_115_1037" x="-1472" y="-1752" width="2858" height="2858" filterUnits="userSpaceOnUse" color-interpolation-filters="sRGB">
<feFlood flood-opacity="0" result="BackgroundImageFix"/>
<feBlend mode="normal" in="SourceGraphic" in2="BackgroundImageFix" result="shape"/>
<feGaussianBlur stdDeviation="467" result="effect1_foregroundBlur_115_1037"/>
</filter>
<filter id="filter1_f_115_1037" x="-1472" y="-819" width="2858" height="2858" filterUnits="userSpaceOnUse" color-interpolation-filters="sRGB">
<feFlood flood-opacity="0" result="BackgroundImageFix"/>
<feBlend mode="normal" in="SourceGraphic" in2="BackgroundImageFix" result="shape"/>
<feGaussianBlur stdDeviation="467" result="effect1_foregroundBlur_115_1037"/>
</filter>
<linearGradient id="paint0_linear_115_1037" x1="373.5" y1="94.4995" x2="856" y2="87.4995" gradientUnits="userSpaceOnUse">
<stop offset="0.544389" stop-color="white"/>
<stop offset="1" stop-color="white" stop-opacity="0"/>
</linearGradient>
<linearGradient id="paint1_linear_115_1037" x1="-17.5" y1="323" x2="1363" y2="323" gradientUnits="userSpaceOnUse">
<stop offset="0.487745" stop-color="white"/>
<stop offset="1" stop-color="white" stop-opacity="0"/>
</linearGradient>
<clipPath id="clip0_115_1037">
<rect width="1440" height="387" fill="white"/>
</clipPath>
</defs>
</svg>
