<svg width="853" height="144" viewBox="0 0 853 144" fill="none" xmlns="http://www.w3.org/2000/svg">
<g opacity="0.3">
<mask id="path-1-outside-1_651_1999" maskUnits="userSpaceOnUse" x="-2" y="-1" width="857" height="146" fill="black">
<rect fill="white" x="-2" y="-1" width="857" height="146"/>
<path d="M16.3918 140L0.0118176 3.49999H45.4468L58.5118 118.745H34.7218L94.7818 3.49999H137.097L148.602 118.745H126.177L186.042 3.49999H231.282L160.302 140H110.967L100.632 45.62H114.672L65.7268 140H16.3918ZM330.031 3.49999H376.051L348.751 140H302.731L330.031 3.49999ZM260.221 140H214.201L241.501 3.49999H287.521L260.221 140ZM315.796 89.69H267.241L274.846 51.86H323.401L315.796 89.69ZM406.025 140L417.92 80.135L422.99 107.63L381.845 3.49999H428.06L456.14 75.065H427.085L484.61 3.49999H530.825L448.34 107.63L463.94 80.135L452.045 140H406.025ZM636.664 143.12C622.494 143.12 610.664 140.455 601.174 135.125C591.684 129.665 584.924 122.125 580.894 112.505C576.994 102.755 576.344 91.445 578.944 78.575L593.959 3.49999H639.979L625.159 77.795C624.249 82.605 623.924 86.765 624.184 90.275C624.444 93.785 625.289 96.71 626.719 99.05C628.279 101.39 630.359 103.145 632.959 104.315C635.559 105.355 638.679 105.875 642.319 105.875C646.739 105.875 650.509 104.965 653.629 103.145C656.879 101.325 659.544 98.335 661.624 94.175C663.834 90.015 665.589 84.555 666.889 77.795L681.709 3.49999H726.949L711.544 80.525C707.514 100.935 699.259 116.47 686.779 127.13C674.299 137.79 657.594 143.12 636.664 143.12ZM774.954 143.12C766.894 143.12 759.159 142.535 751.749 141.365C744.339 140.195 737.579 138.57 731.469 136.49C725.489 134.28 720.289 131.875 715.869 129.275L733.614 95.345C738.684 98.205 743.754 100.61 748.824 102.56C754.024 104.38 759.159 105.745 764.229 106.655C769.429 107.565 774.564 108.02 779.634 108.02C783.664 108.02 786.979 107.695 789.579 107.045C792.309 106.395 794.324 105.485 795.624 104.315C797.054 103.015 797.769 101.585 797.769 100.025C797.769 97.945 796.599 96.255 794.259 94.955C791.919 93.655 788.799 92.485 784.899 91.445C781.129 90.405 776.904 89.365 772.224 88.325C767.674 87.155 763.059 85.725 758.379 84.035C753.699 82.215 749.409 79.94 745.509 77.21C741.739 74.48 738.684 71.035 736.344 66.875C734.004 62.715 732.834 57.645 732.834 51.665C732.834 41.265 735.564 32.23 741.024 24.56C746.614 16.89 754.544 10.975 764.814 6.81499C775.214 2.525 787.564 0.379996 801.864 0.379996C812.004 0.379996 821.429 1.41999 830.139 3.49999C838.979 5.44999 846.584 8.30999 852.954 12.08L836.379 45.62C830.919 42.24 824.939 39.705 818.439 38.015C812.069 36.325 805.569 35.48 798.939 35.48C794.519 35.48 790.814 35.935 787.824 36.845C784.834 37.625 782.559 38.73 780.999 40.16C779.569 41.59 778.854 43.085 778.854 44.645C778.854 46.725 780.024 48.48 782.364 49.91C784.704 51.21 787.824 52.38 791.724 53.42C795.624 54.33 799.849 55.37 804.399 56.54C809.079 57.58 813.694 58.945 818.244 60.635C822.924 62.195 827.214 64.34 831.114 67.07C835.014 69.67 838.134 73.05 840.474 77.21C842.814 81.24 843.984 86.245 843.984 92.225C843.984 102.365 841.189 111.27 835.599 118.94C830.009 126.48 822.014 132.395 811.614 136.685C801.344 140.975 789.124 143.12 774.954 143.12Z"/>
</mask>
<path d="M16.3918 140L15.3989 140.119L15.5046 141H16.3918V140ZM0.0118179 3.49999V2.49999H-1.11536L-0.98106 3.61914L0.0118179 3.49999ZM45.4468 3.49999L46.4405 3.38734L46.3399 2.49999H45.4468V3.49999ZM58.5118 118.745V119.745H59.6316L59.5055 118.632L58.5118 118.745ZM34.7218 118.745L33.835 118.283L33.073 119.745H34.7218V118.745ZM94.7818 3.49999V2.49999H94.1753L93.895 3.03783L94.7818 3.49999ZM137.097 3.49999L138.092 3.40065L138.002 2.49999H137.097V3.49999ZM148.602 118.745V119.745H149.707L149.597 118.646L148.602 118.745ZM126.177 118.745L125.289 118.284L124.531 119.745H126.177V118.745ZM186.042 3.49999V2.49999H185.434L185.154 3.03902L186.042 3.49999ZM231.282 3.49999L232.169 3.96134L232.929 2.49999H231.282V3.49999ZM160.302 140V141H160.909L161.189 140.461L160.302 140ZM110.967 140L109.973 140.109L110.07 141H110.967V140ZM100.632 45.62V44.62H99.5163L99.6378 45.7288L100.632 45.62ZM114.672 45.62L115.56 46.0804L116.317 44.62H114.672V45.62ZM65.7268 140V141H66.3347L66.6145 140.46L65.7268 140ZM17.3847 139.881L1.00469 3.38085L-0.98106 3.61914L15.3989 140.119L17.3847 139.881ZM0.0118179 4.49999H45.4468V2.49999H0.0118179V4.49999ZM44.4532 3.61264L57.5182 118.858L59.5055 118.632L46.4405 3.38734L44.4532 3.61264ZM58.5118 117.745H34.7218V119.745H58.5118V117.745ZM35.6086 119.207L95.6686 3.96215L93.895 3.03783L33.835 118.283L35.6086 119.207ZM94.7818 4.49999H137.097V2.49999H94.7818V4.49999ZM136.102 3.59933L147.607 118.844L149.597 118.646L138.092 3.40065L136.102 3.59933ZM148.602 117.745H126.177V119.745H148.602V117.745ZM127.064 119.206L186.929 3.96096L185.154 3.03902L125.289 118.284L127.064 119.206ZM186.042 4.49999H231.282V2.49999H186.042V4.49999ZM230.395 3.03864L159.415 139.539L161.189 140.461L232.169 3.96134L230.395 3.03864ZM160.302 139H110.967V141H160.302V139ZM111.961 139.891L101.626 45.5111L99.6378 45.7288L109.973 140.109L111.961 139.891ZM100.632 46.62H114.672V44.62H100.632V46.62ZM113.784 45.1596L64.8391 139.54L66.6145 140.46L115.56 46.0804L113.784 45.1596ZM65.7268 139H16.3918V141H65.7268V139ZM330.031 3.49999V2.49999H329.211L329.05 3.30387L330.031 3.49999ZM376.051 3.49999L377.032 3.69611L377.271 2.49999H376.051V3.49999ZM348.751 140V141H349.571L349.732 140.196L348.751 140ZM302.731 140L301.75 139.804L301.511 141H302.731V140ZM260.221 140V141H261.041L261.202 140.196L260.221 140ZM214.201 140L213.22 139.804L212.981 141H214.201V140ZM241.501 3.49999V2.49999H240.681L240.52 3.30387L241.501 3.49999ZM287.521 3.49999L288.502 3.69611L288.741 2.49999H287.521V3.49999ZM315.796 89.69V90.69H316.615L316.776 89.8871L315.796 89.69ZM267.241 89.69L266.261 89.4929L266.02 90.69H267.241V89.69ZM274.846 51.86V50.86H274.027L273.866 51.6629L274.846 51.86ZM323.401 51.86L324.381 52.0571L324.622 50.86H323.401V51.86ZM330.031 4.49999H376.051V2.49999H330.031V4.49999ZM375.07 3.30387L347.77 139.804L349.732 140.196L377.032 3.69611L375.07 3.30387ZM348.751 139H302.731V141H348.751V139ZM303.712 140.196L331.012 3.69611L329.05 3.30387L301.75 139.804L303.712 140.196ZM260.221 139H214.201V141H260.221V139ZM215.182 140.196L242.482 3.69611L240.52 3.30387L213.22 139.804L215.182 140.196ZM241.501 4.49999H287.521V2.49999H241.501V4.49999ZM286.54 3.30387L259.24 139.804L261.202 140.196L288.502 3.69611L286.54 3.30387ZM315.796 88.69H267.241V90.69H315.796V88.69ZM268.221 89.8871L275.826 52.0571L273.866 51.6629L266.261 89.4929L268.221 89.8871ZM274.846 52.86H323.401V50.86H274.846V52.86ZM322.421 51.6629L314.816 89.4929L316.776 89.8871L324.381 52.0571L322.421 51.6629ZM406.025 140L405.044 139.805L404.806 141H406.025V140ZM417.92 80.135L418.903 79.9537L416.939 79.9401L417.92 80.135ZM422.99 107.63L422.06 107.997L423.973 107.449L422.99 107.63ZM381.845 3.49999V2.49999H380.374L380.915 3.86747L381.845 3.49999ZM428.06 3.49999L428.991 3.13473L428.742 2.49999H428.06V3.49999ZM456.14 75.065V76.065H457.606L457.071 74.6997L456.14 75.065ZM427.085 75.065L426.305 74.4385L424.998 76.065H427.085V75.065ZM484.61 3.49999V2.49999H484.13L483.83 2.87348L484.61 3.49999ZM530.825 3.49999L531.609 4.12092L532.893 2.49999H530.825V3.49999ZM448.34 107.63L447.47 107.137L449.124 108.251L448.34 107.63ZM463.94 80.135L464.921 80.3299L463.07 79.6415L463.94 80.135ZM452.045 140V141H452.866L453.025 140.195L452.045 140ZM407.005 140.195L418.9 80.3299L416.939 79.9401L405.044 139.805L407.005 140.195ZM416.936 80.3163L422.006 107.811L423.973 107.449L418.903 79.9537L416.936 80.3163ZM423.92 107.263L382.775 3.13251L380.915 3.86747L422.06 107.997L423.92 107.263ZM381.845 4.49999H428.06V2.49999H381.845V4.49999ZM427.129 3.86525L455.209 75.4303L457.071 74.6997L428.991 3.13473L427.129 3.86525ZM456.14 74.065H427.085V76.065H456.14V74.065ZM427.864 75.6915L485.389 4.1265L483.83 2.87348L426.305 74.4385L427.864 75.6915ZM484.61 4.49999H530.825V2.49999H484.61V4.49999ZM530.041 2.87906L447.556 107.009L449.124 108.251L531.609 4.12092L530.041 2.87906ZM449.209 108.123L464.809 80.6285L463.07 79.6415L447.47 107.137L449.209 108.123ZM462.959 79.9401L451.064 139.805L453.025 140.195L464.921 80.3299L462.959 79.9401ZM452.045 139H406.025V141H452.045V139ZM601.174 135.125L600.675 135.992L600.684 135.997L601.174 135.125ZM580.894 112.505L579.966 112.876L579.969 112.884L579.972 112.891L580.894 112.505ZM578.944 78.575L579.924 78.773L579.925 78.7711L578.944 78.575ZM593.959 3.49999V2.49999H593.139L592.978 3.30387L593.959 3.49999ZM639.979 3.49999L640.96 3.69561L641.198 2.49999H639.979V3.49999ZM625.159 77.795L624.178 77.5994L624.176 77.6091L625.159 77.795ZM624.184 90.275L625.181 90.2011L624.184 90.275ZM626.719 99.05L625.866 99.5714L625.876 99.5883L625.887 99.6047L626.719 99.05ZM632.959 104.315L632.549 105.227L632.568 105.236L632.588 105.243L632.959 104.315ZM653.629 103.145L653.14 102.272L653.133 102.277L653.125 102.281L653.629 103.145ZM661.624 94.175L660.741 93.7058L660.735 93.7167L660.73 93.7278L661.624 94.175ZM666.889 77.795L665.908 77.5994L665.907 77.6062L666.889 77.795ZM681.709 3.49999V2.49999H680.889L680.728 3.30437L681.709 3.49999ZM726.949 3.49999L727.93 3.69611L728.169 2.49999H726.949V3.49999ZM711.544 80.525L710.563 80.3289L710.563 80.3313L711.544 80.525ZM686.779 127.13L687.428 127.89L686.779 127.13ZM636.664 142.12C622.615 142.12 610.966 139.477 601.664 134.253L600.684 135.997C610.362 141.433 622.373 144.12 636.664 144.12V142.12ZM601.673 134.258C592.363 128.902 585.757 121.526 581.816 112.119L579.972 112.891C584.091 122.724 591.005 130.428 600.675 135.992L601.673 134.258ZM581.822 112.134C578.011 102.605 577.353 91.5 579.924 78.773L577.964 78.377C575.335 91.39 575.977 102.905 579.966 112.876L581.822 112.134ZM579.925 78.7711L594.94 3.69611L592.978 3.30387L577.963 78.3789L579.925 78.7711ZM593.959 4.49999H639.979V2.49999H593.959V4.49999ZM638.998 3.30437L624.178 77.5994L626.14 77.9906L640.96 3.69561L638.998 3.30437ZM624.176 77.6091C623.256 82.474 622.918 86.7256 623.187 90.3489L625.181 90.2011C624.93 86.8044 625.242 82.736 626.142 77.9809L624.176 77.6091ZM623.187 90.3489C623.455 93.9738 624.333 97.0629 625.866 99.5714L627.572 98.5285C626.245 96.3571 625.433 93.5962 625.181 90.2011L623.187 90.3489ZM625.887 99.6047C627.553 102.103 629.78 103.981 632.549 105.227L633.369 103.403C630.938 102.309 629.005 100.677 627.551 98.4953L625.887 99.6047ZM632.588 105.243C635.335 106.343 638.588 106.875 642.319 106.875V104.875C638.77 104.875 635.783 104.367 633.33 103.387L632.588 105.243ZM642.319 106.875C646.877 106.875 650.829 105.936 654.133 104.009L653.125 102.281C650.189 103.994 646.601 104.875 642.319 104.875V106.875ZM654.118 104.018C657.581 102.078 660.371 98.9167 662.518 94.6222L660.73 93.7278C658.717 97.7533 656.176 100.572 653.14 102.272L654.118 104.018ZM662.507 94.6442C664.78 90.3658 666.56 84.8009 667.871 77.9838L665.907 77.6062C664.618 84.3091 662.888 89.6642 660.741 93.7058L662.507 94.6442ZM667.87 77.9906L682.69 3.69561L680.728 3.30437L665.908 77.5994L667.87 77.9906ZM681.709 4.49999H726.949V2.49999H681.709V4.49999ZM725.968 3.30387L710.563 80.3289L712.525 80.7211L727.93 3.69611L725.968 3.30387ZM710.563 80.3313C706.565 100.581 698.397 115.891 686.13 126.37L687.428 127.89C700.121 117.049 708.463 101.289 712.525 80.7187L710.563 80.3313ZM686.13 126.37C673.876 136.836 657.423 142.12 636.664 142.12V144.12C657.765 144.12 674.722 138.744 687.428 127.89L686.13 126.37ZM751.749 141.365L751.905 140.377L751.749 141.365ZM731.469 136.49L731.122 137.428L731.135 137.432L731.147 137.437L731.469 136.49ZM715.869 129.275L714.983 128.812L714.542 129.655L715.362 130.137L715.869 129.275ZM733.614 95.345L734.105 94.474L733.206 93.9669L732.728 94.8816L733.614 95.345ZM748.824 102.56L748.465 103.493L748.479 103.499L748.494 103.504L748.824 102.56ZM764.229 106.655L764.052 107.639L764.057 107.64L764.229 106.655ZM789.579 107.045L789.347 106.072L789.336 106.075L789.579 107.045ZM795.624 104.315L796.293 105.058L796.297 105.055L795.624 104.315ZM794.259 94.955L793.773 95.8292L794.259 94.955ZM784.899 91.445L784.633 92.409L784.641 92.4112L784.899 91.445ZM772.224 88.325L771.975 89.2935L771.991 89.2976L772.007 89.3012L772.224 88.325ZM758.379 84.035L758.017 84.967L758.028 84.9714L758.039 84.9756L758.379 84.035ZM745.509 77.21L744.922 78.0199L744.929 78.0246L744.936 78.0292L745.509 77.21ZM736.344 66.875L737.216 66.3847L736.344 66.875ZM741.024 24.56L740.216 23.971L740.209 23.9801L741.024 24.56ZM764.814 6.81499L765.189 7.74186L765.195 7.73943L764.814 6.81499ZM830.139 3.49999L829.907 4.47264L829.915 4.47465L829.924 4.47651L830.139 3.49999ZM852.954 12.08L853.851 12.523L854.261 11.6917L853.463 11.2194L852.954 12.08ZM836.379 45.62L835.853 46.4703L836.788 47.0493L837.276 46.063L836.379 45.62ZM818.439 38.015L818.183 38.9816L818.187 38.9828L818.439 38.015ZM787.824 36.845L788.076 37.8126L788.096 37.8075L788.115 37.8017L787.824 36.845ZM780.999 40.16L780.323 39.4228L780.307 39.4375L780.292 39.4529L780.999 40.16ZM782.364 49.91L781.843 50.7633L781.86 50.7741L781.878 50.7842L782.364 49.91ZM791.724 53.42L791.466 54.3862L791.482 54.3903L791.497 54.3938L791.724 53.42ZM804.399 56.54L804.15 57.5085L804.166 57.5126L804.182 57.5162L804.399 56.54ZM818.244 60.635L817.896 61.5724L817.912 61.5783L817.928 61.5837L818.244 60.635ZM831.114 67.07L830.541 67.8892L830.55 67.8957L830.559 67.902L831.114 67.07ZM840.474 77.21L839.602 77.7003L839.609 77.7121L840.474 77.21ZM835.599 118.94L836.402 119.536L836.407 119.529L835.599 118.94ZM811.614 136.685L811.233 135.761L811.229 135.762L811.614 136.685ZM774.954 142.12C766.942 142.12 759.26 141.539 751.905 140.377L751.593 142.353C759.058 143.531 766.846 144.12 774.954 144.12V142.12ZM751.905 140.377C744.543 139.215 737.839 137.602 731.791 135.543L731.147 137.437C737.319 139.538 744.135 141.175 751.593 142.353L751.905 140.377ZM731.816 135.552C725.878 133.358 720.734 130.977 716.376 128.413L715.362 130.137C719.844 132.773 725.1 135.202 731.122 137.428L731.816 135.552ZM716.755 129.738L734.5 95.8084L732.728 94.8816L714.983 128.812L716.755 129.738ZM733.123 96.216C738.232 99.0983 743.346 101.525 748.465 103.493L749.183 101.627C744.162 99.6954 739.136 97.3117 734.105 94.474L733.123 96.216ZM748.494 103.504C753.74 105.34 758.927 106.719 764.052 107.639L764.406 105.671C759.391 104.771 754.308 103.42 749.154 101.616L748.494 103.504ZM764.057 107.64C769.311 108.56 774.504 109.02 779.634 109.02V107.02C774.624 107.02 769.547 106.57 764.401 105.67L764.057 107.64ZM779.634 109.02C783.709 109.02 787.113 108.692 789.822 108.015L789.336 106.075C786.845 106.698 783.619 107.02 779.634 107.02V109.02ZM789.811 108.018C792.615 107.35 794.815 106.388 796.293 105.058L794.955 103.572C793.833 104.582 792.003 105.44 789.347 106.072L789.811 108.018ZM796.297 105.055C797.882 103.614 798.769 101.932 798.769 100.025H796.769C796.769 101.238 796.226 102.416 794.951 103.575L796.297 105.055ZM798.769 100.025C798.769 97.4751 797.296 95.4984 794.745 94.0808L793.773 95.8292C795.902 97.0116 796.769 98.4149 796.769 100.025H798.769ZM794.745 94.0808C792.306 92.7262 789.1 91.5304 785.157 90.4788L784.641 92.4112C788.498 93.4396 791.532 94.5838 793.773 95.8292L794.745 94.0808ZM785.165 90.481C781.376 89.4357 777.134 88.3917 772.441 87.3488L772.007 89.3012C776.674 90.3383 780.882 91.3743 784.633 92.409L785.165 90.481ZM772.473 87.3565C767.955 86.1948 763.371 84.7743 758.719 83.0944L758.039 84.9756C762.747 86.6757 767.393 88.1152 771.975 89.2935L772.473 87.3565ZM758.741 83.103C754.132 81.3104 749.913 79.0724 746.082 76.3908L744.936 78.0292C748.905 80.8076 753.266 83.1196 758.017 84.967L758.741 83.103ZM746.096 76.4001C742.446 73.757 739.487 70.4221 737.216 66.3847L735.472 67.3653C737.881 71.6479 741.032 75.203 744.922 78.0199L746.096 76.4001ZM737.216 66.3847C734.979 62.4077 733.834 57.516 733.834 51.665H731.834C731.834 57.774 733.029 63.0222 735.472 67.3653L737.216 66.3847ZM733.834 51.665C733.834 41.4501 736.512 32.6229 741.839 25.1399L740.209 23.9801C734.616 31.8371 731.834 41.0799 731.834 51.665H733.834ZM741.832 25.149C747.295 17.6535 755.063 11.8437 765.189 7.74184L764.439 5.88815C754.025 10.1063 745.933 16.1265 740.216 23.971L741.832 25.149ZM765.195 7.73943C775.446 3.51085 787.661 1.38 801.864 1.38V-0.620003C787.467 -0.620003 774.982 1.53914 764.433 5.89056L765.195 7.73943ZM801.864 1.38C811.936 1.38 821.282 2.41302 829.907 4.47264L830.371 2.52734C821.576 0.426964 812.072 -0.620003 801.864 -0.620003V1.38ZM829.924 4.47651C838.682 6.40858 846.184 9.23503 852.445 12.9406L853.463 11.2194C846.984 7.38495 839.276 4.49139 830.354 2.52347L829.924 4.47651ZM852.057 11.637L835.482 45.177L837.276 46.063L853.851 12.523L852.057 11.637ZM836.905 44.7697C831.356 41.3346 825.283 38.7612 818.691 37.0472L818.187 38.9828C824.595 40.6488 830.482 43.1454 835.853 46.4703L836.905 44.7697ZM818.695 37.0484C812.241 35.3361 805.655 34.48 798.939 34.48V36.48C805.483 36.48 811.897 37.3139 818.183 38.9816L818.695 37.0484ZM798.939 34.48C794.458 34.48 790.647 34.9404 787.533 35.8883L788.115 37.8017C790.981 36.9296 794.58 36.48 798.939 36.48V34.48ZM787.572 35.8774C784.491 36.6809 782.046 37.8436 780.323 39.4228L781.675 40.8972C783.072 39.6164 785.177 38.569 788.076 37.8126L787.572 35.8774ZM780.292 39.4529C778.732 41.0124 777.854 42.7477 777.854 44.645H779.854C779.854 43.4223 780.406 42.1676 781.706 40.8671L780.292 39.4529ZM777.854 44.645C777.854 47.1827 779.312 49.217 781.843 50.7633L782.885 49.0567C780.736 47.7429 779.854 46.2673 779.854 44.645H777.854ZM781.878 50.7842C784.317 52.1388 787.523 53.3346 791.466 54.3862L791.982 52.4538C788.125 51.4254 785.091 50.2812 782.85 49.0358L781.878 50.7842ZM791.497 54.3938C795.388 55.3019 799.606 56.34 804.15 57.5085L804.648 55.5715C800.092 54.3999 795.86 53.3581 791.951 52.4462L791.497 54.3938ZM804.182 57.5162C808.817 58.5462 813.388 59.8981 817.896 61.5724L818.592 59.6976C814 57.9919 809.341 56.6138 804.616 55.5638L804.182 57.5162ZM817.928 61.5837C822.52 63.1143 826.722 65.2165 830.541 67.8892L831.688 66.2508C827.706 63.4634 823.328 61.2757 818.56 59.6863L817.928 61.5837ZM830.559 67.902C834.326 70.413 837.338 73.6749 839.602 77.7003L841.346 76.7197C838.93 72.425 835.702 68.927 831.669 66.2379L830.559 67.902ZM839.609 77.7121C841.839 81.5522 842.984 86.3724 842.984 92.225H844.984C844.984 86.1176 843.789 80.9278 841.339 76.7079L839.609 77.7121ZM842.984 92.225C842.984 102.169 840.247 110.864 834.791 118.351L836.407 119.529C842.131 111.676 844.984 102.561 844.984 92.225H842.984ZM834.796 118.344C829.334 125.712 821.498 131.526 811.233 135.761L811.995 137.609C822.53 133.264 830.684 127.248 836.402 119.536L834.796 118.344ZM811.229 135.762C801.109 139.989 789.026 142.12 774.954 142.12V144.12C789.222 144.12 801.579 141.961 811.999 137.608L811.229 135.762Z" fill="white" mask="url(#path-1-outside-1_651_1999)"/>
</g>
</svg>
